<?xml version="1.0" encoding="UTF-8" standalone="no"?>
<svg width="215px" height="50px" viewBox="0 0 215 50" version="1.1" xmlns="http://www.w3.org/2000/svg" xmlns:xlink="http://www.w3.org/1999/xlink">
    <!-- Generator: Sketch 3.6.1 (26313) - http://www.bohemiancoding.com/sketch -->
    <title>organizer_logo</title>
    <desc>Created with Sketch.</desc>
    <defs></defs>
    <g id="Page-1" stroke="none" stroke-width="1" fill="none" fill-rule="evenodd">
        <g id="ironman-big">
            <path d="M0.256443418,18.1963037 L13.9094013,18.1963037 L13.9094013,49.7827156 L0.256443418,49.7827156 L0.256443418,18.1963037 Z" id="Fill-6" fill="#000000"></path>
            <path d="M45.179957,21.097594 L45.179957,30.4887087 L45.2665482,30.9151899 L44.964716,31.7693707 C44.6208253,32.5796848 44.0604565,33.0073845 43.2415512,33.0073845 C44.5342341,33.0073845 45.179957,33.9029949 45.179957,35.781949 L45.179957,49.7814971 L31.9995396,49.7814971 L31.9995396,38.4699987 C31.9995396,37.7449808 31.6123533,37.4025773 30.9666303,37.4025773 L28.8129835,37.4025773 L28.8129835,49.7814971 L16.0642851,49.7814971 L16.0642851,18.1963037 L40.0982907,18.1963037 C41.6915687,18.1963037 42.8976604,18.4095442 43.7586243,18.8360254 C44.7061795,19.3478028 45.179957,20.0313911 45.179957,21.097594 L45.179957,21.097594 Z M31.7842987,27.245015 C31.7842987,26.0070012 30.7513894,25.4525757 28.8129835,25.5793015 L28.8129835,28.9948062 C30.7513894,29.0801024 31.7842987,28.525677 31.7842987,27.245015 L31.7842987,27.245015 Z" id="Fill-7" fill="#000000"></path>
            <path d="M71.1090728,18.1963037 C75.2011254,18.1963037 77.268181,20.9696496 77.3547722,26.4334823 L77.3547722,43.5926465 C77.3547722,46.7936921 75.9767351,48.799372 73.3480738,49.4829603 L70.763945,49.7814971 L54.8274535,49.7814971 L51.7274886,49.4829603 C48.7982321,48.8432386 47.2903082,47.0922289 47.2903082,44.147072 L47.2903082,25.9643531 C47.2903082,20.8843534 49.3586008,18.2815999 53.5793032,18.1963037 L71.1090728,18.1963037 L71.1090728,18.1963037 Z M61.7621715,28.0126811 L61.7621715,40.6901377 C61.7621715,41.5857481 62.1505948,42.098744 62.7963178,42.098744 C63.4420407,42.098744 63.7005773,41.5857481 63.7005773,40.6048414 L63.7005773,28.0126811 C63.6572817,27.0744225 63.3554495,26.6467229 62.7963178,26.6467229 C62.1926534,26.6467229 61.8487627,27.0744225 61.7621715,28.0126811 L61.7621715,28.0126811 Z" id="Fill-8" fill="#000000"></path>
            <path d="M95.7888013,18.1963037 L95.7888013,24.1706952 L92.3437086,18.1963037 L79.2065868,18.1963037 L79.2065868,49.7814971 L91.869931,49.7814971 L91.869931,40.4756786 L96.9515974,49.7814971 L108.365554,49.7814971 L108.365554,18.1963037 L95.7888013,18.1963037" id="Fill-9" fill="#000000"></path>
            <path d="M140.540369,49.5928863 L150.878122,49.5928863 L150.878122,18.092989 L111.897238,18.092989 L111.897238,49.5928863 L123.0106,49.5928863 L123.0106,37.8549067 L128.739226,49.5928863 L134.424557,49.5928863 L140.540369,38.0681473 L140.540369,49.5928863 L140.540369,49.5928863 Z M138.341081,4.62201814 C138.729504,5.51884706 138.943508,6.54362032 138.943508,7.52452695 C138.943508,8.59194832 138.729504,9.57285495 138.341081,10.512332 C137.99719,11.3665128 137.436821,12.1353974 136.704507,12.8604153 C136.058784,13.5854333 135.283174,14.1410773 134.335619,14.4834807 C133.388064,14.8660952 132.397213,15.0793358 131.4076,15.0793358 C130.330158,15.0793358 129.296011,14.8660952 128.391752,14.4834807 C127.530788,14.1410773 126.711883,13.5854333 126.022864,12.8604153 C125.29055,12.1353974 124.730181,11.3665128 124.342995,10.512332 C123.997867,9.57285495 123.783863,8.59194832 123.783863,7.52452695 C123.783863,6.54362032 123.997867,5.51884706 124.342995,4.62201814 C124.730181,3.68375962 125.29055,2.91365653 126.022864,2.27515333 C126.668587,1.54891687 127.444197,0.994491387 128.391752,0.610658358 C129.296011,0.268254926 130.330158,0.0550143547 131.4076,0.0550143547 C132.397213,0.0550143547 133.388064,0.268254926 134.335619,0.610658358 C135.283174,0.994491387 136.058784,1.54891687 136.704507,2.27515333 C137.436821,2.91365653 137.99719,3.68375962 138.341081,4.62201814 L138.341081,4.62201814 Z" id="Fill-10" fill="#D9262E"></path>
            <path d="M177.151128,18.1963037 L183.224882,49.7814971 L170.690188,49.7814971 L169.742633,43.1649468 L165.651817,43.1649468 L164.445725,49.7814971 L152.212863,49.7814971 L157.337825,18.1963037 L177.151128,18.1963037 L177.151128,18.1963037 Z M168.536541,34.5439351 L167.590223,31.513482 L166.728022,34.5439351 L168.536541,34.5439351 L168.536541,34.5439351 Z" id="Fill-11" fill="#000000"></path>
            <path d="M201.830857,18.1963037 L201.830857,24.1706952 L198.385764,18.1963037 L185.248642,18.1963037 L185.248642,49.7814971 L197.868691,49.7814971 L197.868691,40.4756786 L202.993653,49.7814971 L214.40761,49.7814971 L214.40761,18.1963037 L201.830857,18.1963037" id="Fill-12" fill="#000000"></path>
        </g>
    </g>
</svg>