<?xml version="1.0" encoding="UTF-8" standalone="no"?>
<svg width="142px" height="50px" viewBox="0 0 142 50" version="1.1" xmlns="http://www.w3.org/2000/svg" xmlns:xlink="http://www.w3.org/1999/xlink">
    <!-- Generator: Sketch 3.6.1 (26313) - http://www.bohemiancoding.com/sketch -->
    <title>organizer_logo</title>
    <desc>Created with Sketch.</desc>
    <defs></defs>
    <g id="Page-1" stroke="none" stroke-width="1" fill="none" fill-rule="evenodd">
        <g id="ironstar-big">
            <path d="M115.079196,28.6562522 L115.473038,31.5975842 L79.9233025,31.5975842 L79.9233025,29.0435474 L62.4242465,49.9633304 L73.0910018,19.3243243 L56.5184528,39.9105032 L56.5184528,31.5975842 L3.3604988,31.5975842 L3.3604988,28.6562522 L60.9280755,28.6562522 L83.9146211,0.0997442455 L72.8543297,31.8734534 L83.927158,18.6389196 L83.927158,28.6562522 L115.079196,28.6562522" id="Fill-1" fill="#852024"></path>
            <path d="M0.258993857,18.6665515 L5.14593579,18.6665515 L5.14593579,42.7817446 L0.258993857,42.7817446 L0.258993857,18.6665515 L0.258993857,18.6665515 Z" id="Fill-2" fill="#852024"></path>
            <path d="M7.86582996,42.7817446 L7.86582996,18.6665515 L14.320495,18.6665515 C18.2387327,18.6665515 20.4516472,19.6826399 20.4516472,22.7987489 L20.4516472,26.2194823 C20.4516472,28.0146541 19.9446674,29.5049769 15.7958732,29.8435232 L15.7958732,29.9113673 C17.9626152,30.1146747 20.4516472,30.6522603 20.4516472,32.8583155 L20.4516472,42.7817446 L15.7497008,42.7817446 L15.7497008,33.5695549 C15.7497008,32.1129295 15.0121645,31.5376028 12.7530777,31.604773 L12.7530777,42.7817446 L7.86582996,42.7817446 L7.86582996,42.7817446 Z M12.7530777,28.6580493 L13.6746921,28.6580493 C15.380627,28.6580493 15.7497008,27.9809566 15.7497008,27.1003318 L15.7497008,22.7309049 C15.7497008,21.816358 15.0121645,21.5454309 13.9052486,21.5454309 L12.7530777,21.5454309 L12.7530777,28.6580493 L12.7530777,28.6580493 Z" id="Fill-3" fill="#1A1918"></path>
            <path d="M23.2186311,22.7309049 C23.2186311,19.5808736 26.5846339,18.6665515 29.5812571,18.6665515 C32.6234411,18.6665515 35.989138,19.5808736 35.989138,22.7309049 L35.989138,38.7171666 C35.989138,41.8674224 32.6234411,42.7817446 29.5812571,42.7817446 C26.5846339,42.7817446 23.2186311,41.8674224 23.2186311,38.7171666 L23.2186311,22.7309049 L23.2186311,22.7309049 Z M28.1058787,38.4125423 C28.1058787,39.6319382 28.6128585,39.9026405 29.6274295,39.9026405 C30.5949107,39.9026405 31.1025019,39.6319382 31.1025019,38.4125423 L31.1025019,23.0357538 C31.1025019,21.816358 30.5949107,21.5454309 29.6274295,21.5454309 C28.6128585,21.5454309 28.1058787,21.816358 28.1058787,23.0357538 L28.1058787,38.4125423 L28.1058787,38.4125423 Z" id="Fill-4" fill="#1A1918"></path>
            <path d="M46.0403625,18.6665515 L49.7745219,39.2594699 L49.7745219,18.6665515 L53.785716,18.6665515 L53.785716,42.7817446 L46.5470364,42.7817446 L42.7211438,21.5454309 L42.7211438,42.7817446 L38.7102554,42.7817446 L38.7102554,18.6665515 L46.0403625,18.6665515" id="Fill-5" fill="#1A1918"></path>
            <path d="M91.4526573,38.4125423 C91.4526573,39.6319382 91.959637,39.9026405 92.9739022,39.9026405 C93.9416891,39.9026405 94.4492804,39.6319382 94.4492804,38.4125423 L94.4492804,36.3466682 C94.4492804,32.9594076 86.5654095,29.6402157 86.5654095,25.7115504 L86.5654095,22.7309049 C86.5654095,19.5808736 89.9311066,18.6665515 92.9277297,18.6665515 C95.9705252,18.6665515 99.3356107,19.5808736 99.3356107,22.7309049 L99.3356107,27.3373368 L94.4492804,27.3373368 L94.4492804,23.0357538 C94.4492804,21.816358 93.9416891,21.5454309 92.9739022,21.5454309 C91.959637,21.5454309 91.4526573,21.816358 91.4526573,23.0357538 L91.4526573,25.5423896 C91.4526573,27.2694927 99.3356107,32.4858472 99.3356107,34.9241896 L99.3356107,38.7171666 C99.3356107,41.8674224 95.9705252,42.7817446 92.9277297,42.7817446 C89.9311066,42.7817446 86.5654095,41.8674224 86.5654095,38.7171666 L86.5654095,33.6373989 L91.4526573,33.6373989 L91.4526573,38.4125423" id="Fill-6" fill="#1A1918"></path>
            <path d="M114.596373,18.6665515 L114.596373,21.5454309 L110.355234,21.5454309 L110.355234,42.7817446 L105.467986,42.7817446 L105.467986,21.5454309 L101.180674,21.5454309 L101.180674,18.6665515 L114.596373,18.6665515" id="Fill-7" fill="#1A1918"></path>
            <path d="M125.503469,28.6562522 L123.237961,29.8709304 L125.06743,34.0141357 L120.288122,31.4506635 L115.514929,34.0141357 L117.344704,29.8709304 L115.079196,28.6562522 L112.892273,42.7806214 L117.320242,42.7806214 L118.380374,36.2435543 L121.833218,36.2435543 L122.759419,42.7806214 L127.690393,42.7806214 L125.503469,28.6562522 L125.503469,28.6562522 Z M120.288122,23.2134514 L122.099244,27.307683 L125.297681,27.307683 L123.958985,18.6656528 L116.623374,18.6656528 L115.284984,27.307683 L118.477305,27.307683 L120.288122,23.2134514 L120.288122,23.2134514 Z" id="Fill-8" fill="#1A1918"></path>
            <path d="M129.258422,42.7817446 L129.258422,18.6665515 L135.712475,18.6665515 C139.631324,18.6665515 141.844238,19.6826399 141.844238,22.7987489 L141.844238,26.2194823 C141.844238,28.0146541 141.337259,29.5049769 137.187854,29.8435232 L137.187854,29.9113673 C139.355207,30.1146747 141.844238,30.6522603 141.844238,32.8583155 L141.844238,42.7817446 L137.123334,42.7817446 C137.123334,39.9030897 137.142293,36.3803657 137.142293,33.5695549 C137.142293,32.1129295 136.404451,31.5376028 134.145669,31.604773 L134.145669,42.7817446 L129.258422,42.7817446 L129.258422,42.7817446 Z M134.145669,28.6580493 L135.066978,28.6580493 C136.772913,28.6580493 137.142293,27.9809566 137.142293,27.1003318 L137.142293,22.7309049 C137.142293,21.816358 136.404451,21.5454309 135.29784,21.5454309 L134.145669,21.5454309 L134.145669,28.6580493 L134.145669,28.6580493 Z" id="Fill-9" fill="#1A1918"></path>
        </g>
    </g>
</svg>